# xmcd
#
# Track frame offsets: 
#        150
#        10982
#        25915
#        37997
#        49495
#        61637
#        71932
#        85452
#        98965
#        112590
#        123467
#        135230
#        145460
#        158210
#        171902
#        183590
#        195690
#        205007
#        214225
#        225830
#        238887
#        252022
#        265385
#        274620
#        283205
#        293672
#        303482
#
# Disc length: 4188 seconds
#
# Revision: 5
# Processed by: cddbd v1.5.2PL0 Copyright (c) Steve Scherf et al.
# Submitted via: ExactAudioCopy v1.1
#
DISCID=8e105a1b
DTITLE=Various Artist - The Aladdin Records Story [CD2]
DYEAR=1994
DGENRE=R&B
TTITLE0=Shirley and Lee - Let The Good Times Roll (mono)
TTITLE1=The Five Keys - How Long (mono)
TTITLE2=Jack 'The Bear' Parker featuring Emmet Davis vocal - I Need Yo
TTITLE2=u, I Want You (mono)
TTITLE3=The Cookies - Don't Let Go (Hold Me, Hold Me, Hold Me) (mono)
TTITLE4=Louis Jordan and His Tympany Five - Messy Bessy (mono)
TTITLE5=Gene and Eunice with Johnny's Combo - This Is My Story (mono)
TTITLE6=Lowell Fulson and His Orchestra - Don't Leave Me Baby (mono)
TTITLE7=Floyd Dixon - Call Operator 210 (mono)
TTITLE8=Bip and Bop with Johnny's Combo - Ding Dong Ding (mono)
TTITLE9=The Aladdins - Remember (mono)
TTITLE10=Shirley and Lee - Rockin' With The Clock (mono)
TTITLE11=Cell Foster and The Audios - Honest I Do (mono)
TTITLE12=Lee Allen - Rockin' At Cosmo's (mono)
TTITLE13=Fatso Theus and The Flairs - Be Cool My Heart (mono)
TTITLE14=The Five Keys - I'm So High (mono)
TTITLE15=King Pleasure and Band - I'm In The Mood For Love (mono)
TTITLE16=The Jivers - Ray Pearl (mono)
TTITLE17=The Squires - Dreamy Eyes (mono)
TTITLE18=Marvin and Johnny - Yak, Yak (mono)
TTITLE19=The Velvetones - The Glory Of Love (mono)
TTITLE20=The Lovers with Ray Ellis and His Orchestra - Darling It's Wond
TTITLE20=erful (mono)
TTITLE21=The Sharps - Our Love Is Here To Stay (mono)
TTITLE22=Big 'T' Tyler - King Kong (mono)
TTITLE23=Marvin and Johnny - Smack, Smack (mono)
TTITLE24=Flip Sloan - Little Girl In The Cabin (mono)
TTITLE25=Jesse Belvin - Sugar Doll (mono)
TTITLE26=Thurston Harris and The Sharps - Little Bitty Pretty One (mono)
EXTD=
EXTT0=
EXTT1=
EXTT2=
EXTT3=
EXTT4=
EXTT5=
EXTT6=
EXTT7=
EXTT8=
EXTT9=
EXTT10=
EXTT11=
EXTT12=
EXTT13=
EXTT14=
EXTT15=
EXTT16=
EXTT17=
EXTT18=
EXTT19=
EXTT20=
EXTT21=
EXTT22=
EXTT23=
EXTT24=
EXTT25=
EXTT26=
PLAYORDER=
